<?xml version="1.0" encoding="utf-8"?>
<!-- Generator: Adobe Illustrator 21.0.1, SVG Export Plug-In . SVG Version: 6.00 Build 0)  -->
<svg version="1.1" id="Layer_1" xmlns="http://www.w3.org/2000/svg" xmlns:xlink="http://www.w3.org/1999/xlink" x="0px" y="0px"
	 viewBox="0 0 310 80.5" style="enable-background:new 0 0 310 80.5;" xml:space="preserve">
<style type="text/css">
	.st0{fill:#D9272E;}
	.st1{fill:#131F6B;}
	.st2{fill:#A7A9AC;}
	.st3{fill:#808285;}
	.st4{fill:#58595B;}
</style>
<g>
	<g>
		<path class="st0" d="M190.2,70.9H86.3c-1.4,0-2.6-1.2-2.6-2.6s1.2-2.6,2.6-2.6h103.9c1.4,0,2.6,1.2,2.6,2.6S191.6,70.9,190.2,70.9
			z"/>
	</g>
	<g>
		<path class="st1" d="M294.1,70.9H190.2c-1.4,0-2.6-1.2-2.6-2.6s1.2-2.6,2.6-2.6h103.8c1.4,0,2.6,1.2,2.6,2.6
			S295.5,70.9,294.1,70.9z"/>
	</g>
	<g>
		<polygon class="st2" points="36.6,9.3 65.6,19.3 36.6,28.2 9.8,19.3 		"/>
		<path class="st3" d="M61.8,37.6c0,13.6-10.7,24.7-24,24.7c-13.3,0-24.1-11-24.1-24.6c0-4.1,1-8,2.7-11.4l21,7.3l21.8-7.2
			C60.9,29.8,61.8,33.6,61.8,37.6z"/>
	</g>
	<path class="st4" d="M289.8,18.9c0-0.8,0.2-1.5,0.6-2.1s0.9-1.2,1.5-1.6c0.7-0.4,1.4-0.6,2.1-0.6c0.8,0,1.5,0.2,2.1,0.6
		c0.7,0.4,1.2,0.9,1.6,1.5c0.4,0.7,0.6,1.4,0.6,2.1c0,0.7-0.2,1.4-0.5,2.1c-0.4,0.7-0.9,1.2-1.5,1.6c-0.7,0.4-1.4,0.6-2.2,0.6
		c-0.8,0-1.5-0.2-2.2-0.6c-0.7-0.4-1.2-0.9-1.5-1.6C290,20.3,289.8,19.6,289.8,18.9z M290.4,18.9c0,0.6,0.2,1.3,0.5,1.8
		c0.3,0.6,0.8,1,1.3,1.3c0.6,0.3,1.2,0.5,1.8,0.5c0.7,0,1.3-0.2,1.8-0.5c0.6-0.3,1-0.8,1.3-1.3c0.3-0.6,0.5-1.2,0.5-1.8
		c0-0.7-0.2-1.3-0.5-1.8c-0.3-0.6-0.8-1-1.3-1.3c-0.6-0.3-1.2-0.5-1.8-0.5c-0.7,0-1.3,0.2-1.8,0.5c-0.6,0.3-1,0.8-1.3,1.3
		C290.6,17.6,290.4,18.2,290.4,18.9z M295.8,17.8c0,0.3-0.1,0.6-0.2,0.8c-0.2,0.2-0.4,0.4-0.7,0.5l1.3,2.2h-0.9l-1.2-2h-0.8v2h-0.8
		v-5h1.5c0.6,0,1.1,0.1,1.4,0.4C295.6,17,295.8,17.3,295.8,17.8z M293.3,18.7h0.6c0.3,0,0.5-0.1,0.7-0.2c0.2-0.2,0.3-0.4,0.3-0.6
		c0-0.3-0.1-0.5-0.2-0.6c-0.2-0.1-0.4-0.2-0.8-0.2h-0.6V18.7z"/>
	<g>
		<g>
			<path class="st4" d="M126.2,15.2l-4.7,40.6h-13.2c-1.2-6.2-2.3-13.3-3.2-21.3c-0.4,3.4-1.4,10.5-2.9,21.3H89l-4.7-40.6h10.3
				l1.1,14.2l1.1,13.7c0.4-7.1,1.4-16.4,2.9-27.9h11c0.1,1.2,0.5,5.7,1.2,13.4L113,44c0.6-9.8,1.6-19.5,3-28.9H126.2z"/>
			<path class="st4" d="M150.9,39.7h-13.1V47c0,1.5,0.1,2.5,0.3,2.9c0.2,0.4,0.6,0.7,1.3,0.7c0.8,0,1.3-0.3,1.5-0.9
				c0.3-0.6,0.4-1.7,0.4-3.4v-4.4h9.6v2.5c0,2.1-0.1,3.6-0.4,4.7s-0.9,2.3-1.8,3.5c-1,1.3-2.2,2.2-3.6,2.8s-3.3,0.9-5.5,0.9
				c-2.1,0-4-0.3-5.7-0.9s-2.9-1.5-3.8-2.5c-0.9-1.1-1.5-2.3-1.9-3.6c-0.4-1.3-0.5-3.2-0.5-5.7V34c0-2.9,0.4-5.2,1.2-6.9
				c0.8-1.7,2.1-3,3.9-3.9s3.8-1.3,6.2-1.3c2.8,0,5.2,0.5,7,1.6c1.8,1.1,3.1,2.5,3.9,4.3c0.7,1.8,1.1,4.3,1.1,7.5V39.7z M140.8,34.3
				v-2.4c0-1.7-0.1-2.8-0.3-3.3c-0.2-0.5-0.6-0.8-1.1-0.8c-0.7,0-1.1,0.2-1.3,0.6c-0.2,0.4-0.3,1.6-0.3,3.5v2.4H140.8z"/>
			<path class="st4" d="M164.4,15.2v9.6c0.8-1,1.8-1.7,2.8-2.2c1-0.5,2.1-0.7,3.4-0.7c1.4,0,2.6,0.2,3.6,0.7c1,0.4,1.8,1,2.3,1.8
				c0.5,0.8,0.9,1.6,1,2.3c0.1,0.8,0.2,2.4,0.2,4.8v15c0,2.4-0.2,4.3-0.5,5.5c-0.3,1.2-1.1,2.2-2.3,3.1c-1.2,0.9-2.6,1.3-4.3,1.3
				c-1.2,0-2.3-0.3-3.3-0.8c-1-0.5-2-1.3-2.8-2.3l-0.7,2.5h-9.5V15.2H164.4z M167.5,32c0-1.7-0.1-2.8-0.3-3.4
				c-0.2-0.5-0.6-0.8-1.3-0.8c-0.6,0-1,0.2-1.2,0.7c-0.2,0.5-0.3,1.6-0.3,3.5v14.4c0,1.8,0.1,2.9,0.3,3.4s0.6,0.8,1.2,0.8
				c0.6,0,1-0.3,1.2-0.8c0.2-0.5,0.3-1.8,0.3-3.7V32z"/>
			<path class="st4" d="M205.9,32.9h-10.6v-7.1c0-2.1-0.1-3.3-0.3-3.8c-0.2-0.5-0.7-0.8-1.5-0.8c-0.9,0-1.4,0.3-1.7,0.9
				s-0.4,2-0.4,4V45c0,2,0.1,3.3,0.4,3.9s0.8,0.9,1.6,0.9c0.8,0,1.3-0.3,1.5-0.9c0.2-0.6,0.4-2,0.4-4.3v-5.1h10.6v1.6
				c0,4.2-0.3,7.2-0.9,9c-0.6,1.8-1.9,3.3-3.9,4.6c-2,1.3-4.5,2-7.5,2c-3.1,0-5.6-0.6-7.7-1.7c-2-1.1-3.3-2.7-4-4.7c-0.7-2-1-5-1-9
				V29.5c0-2.9,0.1-5.1,0.3-6.6c0.2-1.5,0.8-2.9,1.8-4.2c1-1.4,2.4-2.4,4.1-3.2c1.8-0.8,3.8-1.2,6.1-1.2c3.1,0,5.7,0.6,7.7,1.8
				c2,1.2,3.4,2.7,4,4.5c0.6,1.8,1,4.6,1,8.4V32.9z"/>
			<path class="st4" d="M219.9,15.2v40.6h-10.4V15.2H219.9z"/>
			<path class="st4" d="M232.6,35.4h-9.5v-2.2c0-2.6,0.3-4.6,0.9-6c0.6-1.4,1.8-2.6,3.6-3.7c1.8-1.1,4.1-1.6,7-1.6
				c3.4,0,6,0.6,7.8,1.8c1.7,1.2,2.8,2.7,3.1,4.5s0.5,5.4,0.5,10.9v16.7h-9.9v-3c-0.6,1.2-1.4,2.1-2.4,2.7c-1,0.6-2.1,0.9-3.5,0.9
				c-1.8,0-3.4-0.5-4.9-1.5c-1.5-1-2.2-3.2-2.2-6.5v-2.7c0-2.5,0.4-4.2,1.2-5.1c0.8-0.9,2.7-2,5.8-3.2c3.3-1.3,5.1-2.2,5.3-2.6
				s0.4-1.4,0.4-2.8c0-1.7-0.1-2.9-0.4-3.4c-0.3-0.5-0.7-0.8-1.3-0.8c-0.7,0-1.1,0.2-1.3,0.7c-0.2,0.4-0.3,1.6-0.3,3.5V35.4z
				 M235.8,40c-1.6,1.2-2.6,2.2-2.8,3c-0.3,0.8-0.4,2-0.4,3.5c0,1.7,0.1,2.8,0.3,3.3c0.2,0.5,0.7,0.8,1.3,0.8c0.6,0,1-0.2,1.2-0.6
				c0.2-0.4,0.3-1.4,0.3-3.1V40z"/>
			<path class="st4" d="M270.1,33.1h-9v-1.8c0-1.5-0.1-2.5-0.3-2.9s-0.6-0.6-1.3-0.6c-0.6,0-1,0.2-1.3,0.6c-0.3,0.4-0.4,0.9-0.4,1.7
				c0,1,0.1,1.8,0.2,2.2c0.1,0.5,0.6,1,1.3,1.6c0.7,0.6,2.2,1.4,4.4,2.5c2.9,1.4,4.9,2.8,5.8,4.1c0.9,1.3,1.4,3.1,1.4,5.5
				c0,2.7-0.4,4.8-1.1,6.1s-1.9,2.4-3.5,3.2c-1.6,0.7-3.6,1.1-6,1.1c-2.6,0-4.8-0.4-6.6-1.2c-1.8-0.8-3.1-1.9-3.8-3.3
				c-0.7-1.4-1-3.4-1-6.2v-1.6h9v2.1c0,1.8,0.1,3,0.3,3.5c0.2,0.5,0.7,0.8,1.3,0.8c0.7,0,1.2-0.2,1.5-0.5c0.3-0.4,0.4-1.1,0.4-2.3
				c0-1.6-0.2-2.6-0.6-3c-0.4-0.4-2.4-1.6-5.9-3.6c-3-1.7-4.8-3.2-5.4-4.6c-0.7-1.4-1-3-1-4.9c0-2.7,0.4-4.6,1.1-5.9
				c0.7-1.3,1.9-2.2,3.6-2.9c1.7-0.7,3.6-1,5.9-1c2.2,0,4.1,0.3,5.6,0.8s2.7,1.3,3.6,2.2c0.8,0.9,1.3,1.8,1.5,2.6
				c0.2,0.8,0.3,2,0.3,3.7V33.1z"/>
			<path class="st4" d="M294.3,33.1h-9v-1.8c0-1.5-0.1-2.5-0.3-2.9s-0.6-0.6-1.3-0.6c-0.6,0-1,0.2-1.3,0.6c-0.3,0.4-0.4,0.9-0.4,1.7
				c0,1,0.1,1.8,0.2,2.2c0.1,0.5,0.6,1,1.3,1.6c0.7,0.6,2.2,1.4,4.4,2.5c2.9,1.4,4.9,2.8,5.8,4.1c0.9,1.3,1.4,3.1,1.4,5.5
				c0,2.7-0.4,4.8-1.1,6.1s-1.9,2.4-3.5,3.2c-1.6,0.7-3.6,1.1-6,1.1c-2.6,0-4.8-0.4-6.6-1.2c-1.8-0.8-3.1-1.9-3.8-3.3
				c-0.7-1.4-1-3.4-1-6.2v-1.6h9v2.1c0,1.8,0.1,3,0.3,3.5c0.2,0.5,0.7,0.8,1.3,0.8c0.7,0,1.2-0.2,1.5-0.5c0.3-0.4,0.4-1.1,0.4-2.3
				c0-1.6-0.2-2.6-0.6-3c-0.4-0.4-2.4-1.6-5.9-3.6c-3-1.7-4.8-3.2-5.4-4.6c-0.7-1.4-1-3-1-4.9c0-2.7,0.4-4.6,1.1-5.9
				c0.7-1.3,1.9-2.2,3.6-2.9c1.7-0.7,3.6-1,5.9-1c2.2,0,4.1,0.3,5.6,0.8s2.7,1.3,3.6,2.2c0.8,0.9,1.3,1.8,1.5,2.6
				c0.2,0.8,0.3,2,0.3,3.7V33.1z"/>
		</g>
	</g>
</g>
</svg>
