<?xml version="1.0" encoding="utf-8"?>
<!-- Generator: Adobe Illustrator 21.0.1, SVG Export Plug-In . SVG Version: 6.00 Build 0)  -->
<svg version="1.1" id="Layer_1" xmlns="http://www.w3.org/2000/svg" xmlns:xlink="http://www.w3.org/1999/xlink" x="0px" y="0px"
	 viewBox="0 0 298.1 100" style="enable-background:new 0 0 298.1 100;" xml:space="preserve">
<style type="text/css">
	.st0{fill:#5779BC;}
	.st1{fill:#7374B7;}
	.st2{fill:url(#SVGID_1_);}
	.st3{fill:none;stroke:#FFFFFF;stroke-width:3;stroke-miterlimit:10;}
</style>
<g>
	<path class="st0" d="M99.5,60.7l6.7-7.6c0.8,2.1,2.2,3.7,4.1,4.9s4,1.8,6.3,1.8c2.8,0,5.1-0.7,6.7-2s2.5-3.1,2.5-5.4
		c0-2.7-2.7-5.3-8.2-8c-1.8-0.8-3.2-1.5-4.2-2.1c-4.9-2.6-8.4-5.1-10.3-7.5c-1.9-2.5-2.9-5.4-2.9-8.8c0-4.7,1.8-8.5,5.5-11.5
		s8.5-4.5,14.4-4.5c3.4,0,6.4,0.6,8.8,1.8c2.5,1.2,4.7,3.1,6.6,5.6l-7.1,6.8c-0.8-1.6-2-2.9-3.4-3.7c-1.4-0.8-3.1-1.2-5.1-1.2
		c-2.4,0-4.3,0.6-5.8,1.8c-1.5,1.2-2.2,2.7-2.2,4.6c0,3,2.9,5.7,8.7,8.2c1.2,0.5,2,0.9,2.7,1.2c4.8,2.2,8.3,4.7,10.6,7.4
		c2.3,2.8,3.5,5.9,3.5,9.4c0,5.3-1.8,9.5-5.4,12.7s-8.5,4.7-14.6,4.7c-4.3,0-8-0.7-11.1-2.2C103.3,65.7,101,63.5,99.5,60.7z"/>
	<path class="st0" d="M143.4,67.9V11.5h13.9c7.4,0,12.9,1.4,16.4,4.2s5.3,7.2,5.3,13.1c0,5.5-1.8,9.8-5.3,12.9
		c-3.6,3.1-8.5,4.7-14.8,4.7h-3.3V68L143.4,67.9L143.4,67.9z M155.5,36.9h1.7c3.3,0,5.7-0.7,7.2-2c1.5-1.4,2.2-3.5,2.2-6.6
		c0-2.8-0.7-4.8-2.2-6.1s-3.9-1.9-7.2-1.9h-1.7V36.9z"/>
	<path class="st0" d="M241.2,39.8c0,4-0.8,7.9-2.3,11.5s-3.7,6.8-6.5,9.5c-2.9,2.8-6.2,4.9-9.9,6.4s-7.5,2.2-11.4,2.2
		c-3.4,0-6.8-0.6-10.1-1.8c-3.3-1.2-6.3-2.8-9.1-5c-3.5-2.8-6.3-6.2-8.2-10.1s-2.8-8.2-2.8-12.7c0-4.1,0.7-7.9,2.2-11.4
		c1.5-3.6,3.7-6.7,6.6-9.5c2.8-2.7,6.1-4.9,9.9-6.4c3.7-1.5,7.6-2.3,11.5-2.3s7.8,0.8,11.5,2.3s7,3.7,9.9,6.4c2.9,2.8,5,6,6.5,9.5
		C240.4,32,241.2,35.8,241.2,39.8z M211.1,58.7c5.1,0,9.3-1.8,12.7-5.4s5-8.1,5-13.5c0-5.3-1.7-9.8-5.1-13.5
		c-3.4-3.6-7.6-5.5-12.6-5.5c-5.1,0-9.4,1.8-12.7,5.5c-3.4,3.6-5.1,8.1-5.1,13.5s1.7,10,5,13.5C201.6,56.9,205.9,58.7,211.1,58.7z"
		/>
	<path class="st0" d="M292.9,26.1c-2.4-2.2-4.9-3.8-7.5-4.8c-2.6-1-5.3-1.5-8.3-1.5c-6,0-10.8,1.8-14.4,5.4s-5.4,8.4-5.4,14.5
		c0,5.9,1.7,10.6,5,14.1s7.8,5.2,13.6,5.2c3.3,0,6.3-0.5,9.1-1.6c2.8-1.1,5.4-2.7,7.8-4.9l-0.1,12.4c-2.6,1.5-5.3,2.6-8.1,3.4
		c-2.8,0.7-5.8,1.1-8.9,1.1c-9,0-16.4-2.8-22.2-8.4s-8.7-12.7-8.7-21.3s2.9-15.7,8.7-21.2c5.8-5.6,13.2-8.4,22.4-8.4
		c3.1,0,6,0.3,8.9,1c2.9,0.6,5.7,1.6,8.4,3L292.9,26.1z"/>
</g>
<g>
	<path class="st1" d="M105,91.4V77.5h2.9c1,0,1.8,0.1,2.3,0.2s0.9,0.3,1.2,0.5c0.4,0.3,0.8,0.8,1,1.3s0.4,1.1,0.4,1.7
		c0,0.7-0.2,1.3-0.5,1.8c-0.4,0.5-0.9,0.8-1.5,1c0.8,0.1,1.5,0.5,1.9,1.1c0.5,0.6,0.7,1.4,0.7,2.3c0,0.6-0.1,1.1-0.3,1.6
		c-0.2,0.5-0.5,0.9-0.8,1.3c-0.4,0.4-0.9,0.7-1.4,0.8c-0.6,0.2-1.5,0.2-2.9,0.2L105,91.4L105,91.4z M106.6,79v4.6h1.3
		c1.2,0,2-0.2,2.5-0.5s0.7-0.9,0.7-1.7c0-0.9-0.2-1.5-0.7-1.9c-0.4-0.4-1.3-0.5-2.5-0.5H106.6z M106.6,84.9V90h1.3
		c0.9,0,1.5,0,1.9-0.1s0.7-0.2,0.9-0.4c0.3-0.2,0.5-0.5,0.7-0.8c0.2-0.4,0.2-0.8,0.2-1.2c0-0.5-0.1-0.9-0.3-1.3
		c-0.2-0.4-0.5-0.7-0.9-0.9c-0.2-0.1-0.5-0.2-0.8-0.3c-0.3-0.1-0.7-0.1-1.4-0.1h-0.5C107.7,84.9,106.6,84.9,106.6,84.9z"/>
	<path class="st1" d="M118.6,91.4v-6.3l-4.7-7.5h1.9l3.6,6l3.6-6h1.9l-4.7,7.5v6.3H118.6z"/>
	<path class="st1" d="M132.4,91.4V77.5h2.9c1,0,1.8,0.1,2.3,0.2s0.9,0.3,1.2,0.5c0.4,0.3,0.8,0.8,1,1.3s0.4,1.1,0.4,1.7
		c0,0.7-0.2,1.3-0.5,1.8c-0.4,0.5-0.9,0.8-1.5,1c0.8,0.1,1.5,0.5,1.9,1.1c0.5,0.6,0.7,1.4,0.7,2.3c0,0.6-0.1,1.1-0.3,1.6
		s-0.5,0.9-0.8,1.3c-0.4,0.4-0.9,0.7-1.4,0.8c-0.6,0.2-1.5,0.2-2.9,0.2L132.4,91.4L132.4,91.4z M134,79v4.6h1.3c1.2,0,2-0.2,2.5-0.5
		s0.7-0.9,0.7-1.7c0-0.9-0.2-1.5-0.7-1.9c-0.4-0.4-1.3-0.5-2.5-0.5H134z M134,84.9V90h1.3c0.9,0,1.5,0,1.9-0.1s0.7-0.2,0.9-0.4
		c0.3-0.2,0.5-0.5,0.7-0.8c0.2-0.4,0.2-0.8,0.2-1.2c0-0.5-0.1-0.9-0.3-1.3s-0.5-0.7-0.9-0.9c-0.2-0.1-0.5-0.2-0.8-0.3
		c-0.3-0.1-0.7-0.1-1.4-0.1h-0.5C135.1,84.9,134,84.9,134,84.9z"/>
	<path class="st1" d="M157.5,84.5c0,1-0.2,1.9-0.5,2.8c-0.4,0.9-0.9,1.7-1.6,2.3c-0.7,0.7-1.5,1.2-2.4,1.6s-1.9,0.6-2.8,0.6
		c-1,0-1.9-0.2-2.8-0.6c-0.9-0.4-1.7-0.9-2.4-1.6s-1.2-1.5-1.6-2.4c-0.4-0.9-0.6-1.8-0.6-2.8s0.2-1.9,0.6-2.8
		c0.4-0.9,0.9-1.7,1.6-2.4c0.7-0.7,1.5-1.2,2.4-1.6s1.9-0.5,2.8-0.5c1,0,1.9,0.2,2.8,0.5c0.9,0.4,1.7,0.9,2.4,1.6s1.2,1.5,1.6,2.3
		C157.3,82.6,157.5,83.5,157.5,84.5z M150.1,90.2c0.8,0,1.5-0.1,2.2-0.4s1.3-0.7,1.9-1.3c0.5-0.5,1-1.2,1.2-1.8
		c0.3-0.7,0.4-1.4,0.4-2.2c0-0.8-0.1-1.5-0.4-2.2c-0.3-0.7-0.7-1.3-1.2-1.9c-0.5-0.5-1.2-1-1.8-1.2c-0.7-0.3-1.4-0.4-2.2-0.4
		s-1.5,0.1-2.2,0.4s-1.3,0.7-1.8,1.2s-1,1.2-1.2,1.9c-0.3,0.7-0.4,1.4-0.4,2.2c0,0.8,0.1,1.5,0.4,2.2c0.3,0.7,0.7,1.3,1.2,1.9
		c0.6,0.6,1.2,1,1.9,1.3C148.6,90.1,149.3,90.2,150.1,90.2z"/>
	<path class="st1" d="M160.2,91.4V77.5h3.3c0.9,0,1.6,0.1,2,0.2s0.8,0.3,1.1,0.5c0.4,0.3,0.7,0.8,1,1.3c0.2,0.5,0.3,1.1,0.3,1.8
		c0,1.1-0.3,2-1,2.6c-0.6,0.6-1.6,0.9-2.8,0.9h-0.3l5.3,6.6H167l-5.1-6.6h-0.2v6.6H160.2z M161.8,78.9v4.6h1.3
		c1.3,0,2.2-0.2,2.6-0.5c0.4-0.3,0.7-0.9,0.7-1.7c0-0.9-0.2-1.5-0.7-1.9c-0.4-0.4-1.3-0.5-2.6-0.5H161.8z"/>
	<path class="st1" d="M170.6,91.4V77.5h7.3V79h-5.7v4h5.7v1.5h-5.7v5.3h5.7v1.5L170.6,91.4L170.6,91.4z"/>
	<path class="st1" d="M185.1,77l6.3,14.4h-1.8l-1.8-4.3h-5.4l-1.8,4.3h-1.8L185.1,77z M185.1,80.6l-2.2,5.1h4.4L185.1,80.6z"/>
	<path class="st1" d="M192.8,91.4V77.5h1.6v12.3h5.2v1.6H192.8z"/>
	<path class="st1" d="M201.7,91.4V77.5h1.6v13.9H201.7z"/>
	<path class="st1" d="M211.8,83.7c0.9,0.4,1.6,0.9,2,1.5c0.5,0.6,0.7,1.4,0.7,2.3c0,1.3-0.4,2.3-1.2,3.1c-0.8,0.8-1.9,1.2-3.2,1.2
		c-1.1,0-2-0.3-2.7-0.8c-0.7-0.6-1.2-1.4-1.5-2.4l1.5-0.7c0.2,0.8,0.5,1.5,1,1.9s1,0.6,1.7,0.6c0.8,0,1.5-0.2,2-0.7s0.8-1.1,0.8-1.9
		c0-0.6-0.2-1.2-0.5-1.6c-0.4-0.5-0.9-0.8-1.6-1.2l-1.7-0.7c-0.9-0.4-1.6-0.9-2.1-1.5s-0.7-1.3-0.7-2.2c0-1,0.4-1.8,1.1-2.4
		c0.7-0.6,1.7-1,2.8-1c0.8,0,1.6,0.2,2.2,0.5c0.6,0.4,1.1,0.9,1.4,1.6l-1.4,0.9c-0.3-0.5-0.7-0.9-1-1.2c-0.4-0.3-0.8-0.4-1.3-0.4
		c-0.6,0-1.1,0.2-1.5,0.6s-0.6,0.9-0.6,1.5c0,0.5,0.2,0.9,0.5,1.3s0.8,0.7,1.4,1L211.8,83.7z"/>
</g>
<linearGradient id="SVGID_1_" gradientUnits="userSpaceOnUse" x1="4.1" y1="16412.8926" x2="93" y2="16412.8926" gradientTransform="matrix(1 0 0 1 0 -16363.7432)">
	<stop  offset="0" style="stop-color:#5779BC"/>
	<stop  offset="1" style="stop-color:#EE3E96"/>
</linearGradient>
<path class="st2" d="M91.8,52L51.4,92.4c-1.6,1.6-4.1,1.6-5.7,0L5.3,52c-1.6-1.6-1.6-4.1,0-5.7L45.7,5.9c1.6-1.6,4.1-1.6,5.7,0
	l40.4,40.4C93.4,47.9,93.4,50.4,91.8,52z"/>
<path class="st3" d="M35.3,82l25.4-25c0,0,8.8-7.7-14.2-6.8c0,0-22.7,2-5.9-12.9L62,16.5"/>
</svg>
